<svg xmlns="http://www.w3.org/2000/svg" xmlns:se="http://svg-edit.googlecode.com" xmlns:xlink="http://www.w3.org/1999/xlink" xmlns:dc="http://purl.org/dc/elements/1.1/" xmlns:cc="http://creativecommons.org/ns#" xmlns:rdf="http://www.w3.org/1999/02/22-rdf-syntax-ns#" xmlns:inkscape="http://www.inkscape.org/namespaces/inkscape" width="777" height="480">                                    <title>my vector image</title>                                    <!-- Created with Vector Paint - http://www.vectorpaint.yaks.com/ https://chrome.google.com/webstore/detail/hnbpdiengicdefcjecjbnjnoifekhgdo -->                                    <rect id="backgroundrect" width="100%" height="100%" x="0" y="0" fill="none" stroke="none"/>                                <g class="currentLayer" style=""><title>Layer 1</title><polyline fill="none" stroke="#222222" stroke-width="2" stroke-linejoin="round" stroke-dashoffset="" fill-rule="nonzero" marker-start="" marker-mid="" marker-end="" id="svg_1" points="21.784270561694086,185.5280873833574 22.907866085371793,184.96628962151854 23.469663847210654,184.96628962151854 24.593259370888358,184.96628962151854 27.402248180082637,184.40449185967967 33.02022579847119,184.40449185967967 40.88539446421518,184.40449185967967 48.75056312995915,184.96628962151854 58.86292284305855,187.21348066887396 72.90786688902995,193.39325604910132 87.51460869684018,201.8202224766842 94.8179796007453,207.99999785691162 98.18876617177844,211.9325821897836 99.31236169545616,215.86516652265558 99.87415945729502,219.79775085552757 99.87415945729502,224.85393071207727 99.87415945729502,229.34831280678813 99.31236169545616,232.1573016159824 98.18876617177844,233.84269490149896 98.18876617177844,236.08988594885437 98.18876617177844,238.33707699620982 98.18876617177844,241.70786356724295 98.75056393361729,243.95505461459837 99.31236169545616,244.5168523764372 99.31236169545616,245.0786501382761 101.55955274281158,246.20224566195375 107.17753036120013,246.76404342379266 114.48090126510525,246.76404342379266 120.66067664533267,245.0786501382761 133.0202274057875,238.89887475804866 155.4921378793417,230.47190833046582 177.40225059105705,224.29213295023843 186.39101478047874,222.04494190288298 187.5146103041565,221.48314414104414 188.0764080659953,221.48314414104414 188.0764080659953,220.9213463792053 188.63820582783418,220.9213463792053 189.20000358967306,219.79775085552757 190.32359911335075,219.23595309368872 192.00899239886732,217.55055980817215 195.94157673173933,214.74157099897786 202.12135211196673,211.9325821897836 208.862925254033,209.6853911424282 216.1662961579381,209.6853911424282 221.78427377632667,211.37078442794473 225.1550603473598,213.61797547530017 229.64944244207064,218.112357570011 237.5146111078146,224.85393071207727 248.7505663445917,230.47190833046582 255.49213948665798,234.4044926633378 258.8629260576911,236.65168371069325 261.1101171050466,237.77527923437094 265.60449919975736,241.14606580540408 271.78427457998475,245.6404479001149 277.96404996021226,249.57303223298692 284.70562310227854,252.38202104218118 289.2000051969893,254.62921208953662 291.44719624434475,255.75280761321432 292.57079176802245,256.3146053750532 293.1325895298613,256.3146053750532 294.81798281537783,256.3146053750532 301.5595559574441,253.50561656585893 308.3011290995104,249.57303223298692 313.91910671789896,245.6404479001149 320.6606798599653,239.4606725198875 332.4584328585812,227.1011217594327 342.0089948098417,216.9887620463333 348.18877019006914,209.6853911424282 350.9977589992634,205.75280680955618 352.68315228478,202.94381800036192 352.68315228478,202.38202023852304 353.2449500466189,201.8202224766842 353.2449500466189,201.25842471484535 353.8067478084576,200.69662695300647 357.1775343794908,199.57303142932878 367.28989409259026,199.01123366748993 383.58202918591695,199.01123366748993 390.88540008982216,199.01123366748993 394.81798442269417,199.01123366748993 405.49214189763245,202.38202023852304 418.975288181765,207.99999785691162 428.52585013302553,214.17977323713902 439.7618053698027,224.85393071207727 448.75056955922435,233.2808971396601 454.93034493945174,240.02247028172638 461.1101203196791,244.5168523764372 464.4809068907123,247.88763894747035 466.72809793806766,249.57303223298692 468.4134912235843,250.1348299948258 470.0988845091008,250.1348299948258 471.22248003277855,250.1348299948258 472.9078733182952,250.1348299948258 474.59326660381174,249.57303223298692 477.4022554130059,249.01123447114804 480.2112442222002,248.44943670930923 483.02023303139447,248.44943670930923 489.76180617346074,245.0786501382761 500.435963648399,238.89887475804866 512.2337166470151,232.71909937782124 525.1550651693087,225.977526235755 540.8854025007967,218.112357570011 553.2449532612515,210.80898666610588 559.9865264033177,206.31460457139505 565.0427062598674,202.94381800036192 568.4134928309005,200.69662695300647 574.0314704492891,198.44943590565106 577.9640547821612,196.20224485829564 581.3348413531943,195.07864933461792 584.7056279242274,194.51685157277907 585.8292234479051,193.95505381094023 588.6382122570993,196.20224485829564 593.1325943518102,203.50561576220076 598.7505719701988,214.17977323713902 604.9303473504261,225.41572847391615 612.2337182543313,238.33707699620982 620.6606846819142,251.2584255185035 624.0314712529472,257.99999866056976 625.155066776625,259.12359418424745 625.155066776625,259.6853919460863 625.7168645384638,259.6853919460863 625.7168645384638,260.24718970792514 630.7730443950135,261.3707852316029 635.8292242515632,261.3707852316029 636.3910220134021,261.3707852316029 638.0764152989186,260.808987469764 643.1325951554684,256.87640313689207 649.3123705356957,253.50561656585893 655.4921459159232,250.1348299948258 662.2337190579894,246.76404342379266 667.851696676378,242.26966132908177 677.4022586276385,234.96629042517668 689.2000116262545,227.1011217594327 697.6269780538373,222.60673966472186 703.2449556722258,219.23595309368872 706.615742243259,217.55055980817215 708.8629332906144,214.74157099897786 710.548326576131,211.37078442794473 714.480910909003,205.19100904771733 717.2898997181973,199.57303142932878 720.0988885273915,194.51685157277907 724.0314728602635,190.02246947806822 725.7168661457802,184.96628962151854 726.2786639076189,175.41572767025798 724.0314728602635,163.61797467164203 724.0314728602635,161.93258138612546 " style="color: green;"/></g></svg>
